<?xml version="1.0" encoding="UTF-8" standalone="no"?>
<svg
   xmlns:dc="http://purl.org/dc/elements/1.1/"
   xmlns:cc="http://creativecommons.org/ns#"
   xmlns:rdf="http://www.w3.org/1999/02/22-rdf-syntax-ns#"
   xmlns:svg="http://www.w3.org/2000/svg"
   xmlns="http://www.w3.org/2000/svg"
   xmlns:sodipodi="http://sodipodi.sourceforge.net/DTD/sodipodi-0.dtd"
   xmlns:inkscape="http://www.inkscape.org/namespaces/inkscape"
   id="svg"
   width="400"
   height="400"
   viewBox="0, 0, 400,400"
   version="1.1"
   sodipodi:docname="chevdown2.svg"
   inkscape:version="0.92.4 (5da689c313, 2019-01-14)">
  <metadata
     id="metadata3729">
    <rdf:RDF>
      <cc:Work
         rdf:about="">
        <dc:format>image/svg+xml</dc:format>
        <dc:type
           rdf:resource="http://purl.org/dc/dcmitype/StillImage" />
        <dc:title></dc:title>
      </cc:Work>
    </rdf:RDF>
  </metadata>
  <defs
     id="defs3727" />
  <sodipodi:namedview
     pagecolor="#ffffff"
     bordercolor="#666666"
     borderopacity="1"
     objecttolerance="10"
     gridtolerance="10"
     guidetolerance="10"
     inkscape:pageopacity="0"
     inkscape:pageshadow="2"
     inkscape:window-width="1366"
     inkscape:window-height="745"
     id="namedview3725"
     showgrid="false"
     inkscape:zoom="1.44"
     inkscape:cx="87.152778"
     inkscape:cy="200"
     inkscape:window-x="-8"
     inkscape:window-y="-8"
     inkscape:window-maximized="1"
     inkscape:current-layer="svg" />
  <g
     id="svgg">
    <path
       id="path0"
       d="M52.386 114.778 C 34.249 132.885,19.409 148.171,19.409 148.746 C 19.409 150.256,198.491 329.114,200.003 329.114 C 201.649 329.114,380.900 149.870,380.485 148.640 C 379.991 147.176,314.503 81.857,313.530 81.857 C 313.053 81.857,287.314 107.204,256.331 138.183 L 200.000 194.510 143.669 138.183 C 112.686 107.204,86.893 81.857,86.350 81.857 C 85.807 81.857,70.523 96.671,52.386 114.778 M200.215 232.068 C 200.580 232.068,226.269 206.670,257.301 175.629 L 313.723 119.191 328.588 134.073 L 343.453 148.956 271.727 220.678 L 200.000 292.401 128.273 220.678 L 56.547 148.956 71.521 133.964 L 86.494 118.973 143.023 175.520 C 174.114 206.621,199.850 232.068,200.215 232.068 "
       stroke="none"
       fill="#000000"
       fill-rule="evenodd" />
  </g>
  <path
     style="fill:#808000;stroke-width:0.69444442"
     d="M 109.80253,239.25544 C 60.560336,190.05036 20.272737,149.33803 20.274526,148.78359 c 0.0033,-1.01612 58.51504,-60.135478 63.386173,-64.044388 2.42373,-1.944956 2.73444,-2.024967 4.166667,-1.072961 0.851196,0.565795 26.482114,25.795099 56.957574,56.065109 l 55.40996,55.03639 56.16161,-55.99498 c 30.88889,-30.79724 56.60348,-55.994982 57.14354,-55.994982 0.54005,0 15.71489,14.724075 33.72187,32.720172 30.09396,30.07578 32.67705,32.83987 31.96166,34.20139 -1.06085,2.01895 -176.20068,177.09401 -178.23197,178.16604 -1.54839,0.81718 -5.46112,-2.98657 -91.14908,-88.60994 z m 162.38146,-18.45331 71.70037,-71.69786 -15.06137,-15.07305 -15.06136,-15.07304 -56.50444,56.25979 c -31.07744,30.94289 -56.7791,56.16168 -57.1148,56.04175 -0.33571,-0.11993 -26.12314,-25.50534 -57.30542,-56.41202 l -56.695044,-56.19397 -15.048503,15.0485 -15.048503,15.04851 71.87211,71.87463 C 167.4467,260.15642 199.9454,292.5 200.13638,292.5 c 0.19097,0 32.6124,-32.26404 72.04761,-71.69787 z"
     id="path4536"
     inkscape:connector-curvature="0" />
  <path
     style="fill:#510909;stroke-width:0.69444442;fill-opacity:1"
     d="M 109.80253,239.25544 C 60.560336,190.05036 20.272737,149.33803 20.274526,148.78359 c 0.0033,-1.01612 58.51504,-60.135478 63.386173,-64.044388 2.42373,-1.944956 2.73444,-2.024967 4.166667,-1.072961 0.851196,0.565795 26.482114,25.795099 56.957574,56.065109 l 55.40996,55.03639 56.16161,-55.99498 c 30.88889,-30.79724 56.60348,-55.994982 57.14354,-55.994982 0.54005,0 15.71489,14.724075 33.72187,32.720172 30.09396,30.07578 32.67705,32.83987 31.96166,34.20139 -1.06085,2.01895 -176.20068,177.09401 -178.23197,178.16604 -1.54839,0.81718 -5.46112,-2.98657 -91.14908,-88.60994 z m 162.38146,-18.45331 71.70037,-71.69786 -15.06137,-15.07305 -15.06136,-15.07304 -56.50444,56.25979 c -31.07744,30.94289 -56.7791,56.16168 -57.1148,56.04175 -0.33571,-0.11993 -26.12314,-25.50534 -57.30542,-56.41202 l -56.695044,-56.19397 -15.048503,15.0485 -15.048503,15.04851 71.87211,71.87463 C 167.4467,260.15642 199.9454,292.5 200.13638,292.5 c 0.19097,0 32.6124,-32.26404 72.04761,-71.69787 z"
     id="path4538"
     inkscape:connector-curvature="0" />
  <path
     style="fill:#510909;fill-opacity:1;stroke-width:0.69444442"
     d="M 128.6115,220.27817 57.08664,148.75078 71.66832,134.19546 86.25,119.64015 l 56.59722,56.19903 c 31.12847,30.90946 56.97164,56.20917 57.42926,56.22159 0.45762,0.0124 26.18053,-25.19111 57.16202,-56.00782 l 56.32998,-56.03039 14.53898,14.53899 14.53898,14.53898 -71.35504,71.35252 -71.35503,71.35251 z"
     id="path4556"
     inkscape:connector-curvature="0" />
</svg>
